<svg xmlns="http://www.w3.org/2000/svg" width="411" height="53" viewBox="0 0 411 53">
  <metadata><?xpacket begin="﻿" id="W5M0MpCehiHzreSzNTczkc9d"?>
<x:xmpmeta xmlns:x="adobe:ns:meta/" x:xmptk="Adobe XMP Core 5.6-c138 79.159824, 2016/09/14-01:09:01        ">
   <rdf:RDF xmlns:rdf="http://www.w3.org/1999/02/22-rdf-syntax-ns#">
      <rdf:Description rdf:about=""/>
   </rdf:RDF>
</x:xmpmeta>
                                                                                                  
                           
<?xpacket end="w"?></metadata>
<defs>
    <style>
      .cls-1 {
        fill: #ffffff;
        fill-rule: evenodd;
      }
    </style>
  </defs>
  <path id="essence." class="cls-1" d="M680.2,269.632a34.658,34.658,0,0,1,1.75-7.45,7.859,7.859,0,0,1,2.4-3.6,4.609,4.609,0,0,1,2.65-.95,5.185,5.185,0,0,1,2.65.8,6.926,6.926,0,0,1,2.4,2.7,19.271,19.271,0,0,1,1.75,4.95,34.462,34.462,0,0,1,.7,7.55,25.832,25.832,0,0,1-.15,2.85q-0.15,1.35-.35,2.45-0.3,1.2-.5,2.2a35.775,35.775,0,0,1-3.6.5q-1.8.2-4.4,0.35t-6,.15A89.9,89.9,0,0,1,680.2,269.632Zm17.1,37.7a19.464,19.464,0,0,0,6-3.45,15.187,15.187,0,0,0,3.85-4.95,13.2,13.2,0,0,0,1.35-5.8H706a10.715,10.715,0,0,1-1.15,4.749,14.586,14.586,0,0,1-3.1,4.2,14.907,14.907,0,0,1-4.6,2.95,14.579,14.579,0,0,1-5.65,1.1,11,11,0,0,1-4.8-1.051,9.439,9.439,0,0,1-3.8-3.5,19.776,19.776,0,0,1-2.5-6.6,49.907,49.907,0,0,1-.9-10.349q6,0,11.5-.451t9.7-1.05q4.9-.6,9.3-1.5c0.133-.465.3-1.033,0.5-1.7a18.556,18.556,0,0,0,.35-1.85,17.531,17.531,0,0,0,.15-2.449,18.6,18.6,0,0,0-1.65-7.75,18.4,18.4,0,0,0-4.75-6.351,23.433,23.433,0,0,0-7.55-4.3,29.591,29.591,0,0,0-10.05-1.6,26.812,26.812,0,0,0-9.95,1.8,20.89,20.89,0,0,0-7.75,5.25,24.578,24.578,0,0,0-5,8.35,32.047,32.047,0,0,0-1.8,11.1q0,12.4,7.1,19.45t19.9,7.05A22.282,22.282,0,0,0,697.3,307.332Zm55.5,0.251a20.012,20.012,0,0,0,7.1-3,11.565,11.565,0,0,0,3.9-4.6,14.01,14.01,0,0,0,1.2-5.85,11.055,11.055,0,0,0-2.15-6.85,23.79,23.79,0,0,0-5.35-5.1,47.569,47.569,0,0,0-7-4.05q-3.8-1.8-7-3.7a25.869,25.869,0,0,1-5.35-4.1,7.182,7.182,0,0,1-2.15-5.2,6.878,6.878,0,0,1,1.95-5,6.159,6.159,0,0,1,4.55-2,10.638,10.638,0,0,1,7.1,2.449,24.982,24.982,0,0,1,4.8,5.35,35.969,35.969,0,0,1,3.7,7.7h4v-17h-2.5q-1,.5-2,1.1-0.8.6-1.75,1.45a12.327,12.327,0,0,0-1.75,1.95,22.937,22.937,0,0,0-3.8-2.7,21.589,21.589,0,0,0-4.3-1.949,16.988,16.988,0,0,0-5.5-.85,38.209,38.209,0,0,0-9.6,1.049,19.533,19.533,0,0,0-6.55,2.9,11.229,11.229,0,0,0-3.7,4.3,13.079,13.079,0,0,0,1,12.549,23.02,23.02,0,0,0,5.35,5.3,47.6,47.6,0,0,0,7,4.15q3.8,1.853,7,3.65a28.009,28.009,0,0,1,5.35,3.8,6.336,6.336,0,0,1,2.15,4.8,7.871,7.871,0,0,1-2.15,5.9q-2.153,2.1-6.35,2.1a12.958,12.958,0,0,1-8-2.4,22.9,22.9,0,0,1-5.2-5.3,28.245,28.245,0,0,1-3.8-7.8h-4v17h2.5a9.987,9.987,0,0,0,2-1.1,11.513,11.513,0,0,0,1.75-1.4,14.57,14.57,0,0,0,1.75-2,15.7,15.7,0,0,0,3.9,2.8,23.355,23.355,0,0,0,4.75,1.9,22.8,22.8,0,0,0,6.35.8A47.41,47.41,0,0,0,752.8,307.583Zm54,0a20.012,20.012,0,0,0,7.1-3,11.565,11.565,0,0,0,3.9-4.6,14.01,14.01,0,0,0,1.2-5.85,11.055,11.055,0,0,0-2.15-6.85,23.748,23.748,0,0,0-5.35-5.1,47.517,47.517,0,0,0-7-4.05q-3.8-1.8-7-3.7a25.9,25.9,0,0,1-5.35-4.1,7.186,7.186,0,0,1-2.15-5.2,6.878,6.878,0,0,1,1.95-5,6.161,6.161,0,0,1,4.55-2,10.636,10.636,0,0,1,7.1,2.449,24.928,24.928,0,0,1,4.8,5.35,35.922,35.922,0,0,1,3.7,7.7h4v-17h-2.5q-1,.5-2,1.1-0.8.6-1.75,1.45a12.376,12.376,0,0,0-1.75,1.95,22.9,22.9,0,0,0-3.8-2.7,21.563,21.563,0,0,0-4.3-1.949,16.988,16.988,0,0,0-5.5-.85,38.22,38.22,0,0,0-9.6,1.049,19.533,19.533,0,0,0-6.55,2.9,11.238,11.238,0,0,0-3.7,4.3,13.079,13.079,0,0,0,1,12.549,23.059,23.059,0,0,0,5.35,5.3,47.706,47.706,0,0,0,7,4.15q3.8,1.853,7,3.65a27.978,27.978,0,0,1,5.35,3.8,6.332,6.332,0,0,1,2.15,4.8,7.868,7.868,0,0,1-2.15,5.9q-2.151,2.1-6.35,2.1a12.958,12.958,0,0,1-8-2.4,22.917,22.917,0,0,1-5.2-5.3,28.245,28.245,0,0,1-3.8-7.8h-4v17h2.5a9.96,9.96,0,0,0,2-1.1,11.464,11.464,0,0,0,1.75-1.4,14.436,14.436,0,0,0,1.75-2,15.733,15.733,0,0,0,3.9,2.8,23.4,23.4,0,0,0,4.75,1.9,22.8,22.8,0,0,0,6.35.8A47.4,47.4,0,0,0,806.8,307.583Zm37.4-37.951a34.658,34.658,0,0,1,1.75-7.45,7.859,7.859,0,0,1,2.4-3.6,4.609,4.609,0,0,1,2.65-.95,5.185,5.185,0,0,1,2.65.8,6.926,6.926,0,0,1,2.4,2.7,19.271,19.271,0,0,1,1.75,4.95,34.462,34.462,0,0,1,.7,7.55,25.832,25.832,0,0,1-.15,2.85q-0.15,1.35-.35,2.45-0.3,1.2-.5,2.2a35.775,35.775,0,0,1-3.6.5q-1.8.2-4.4,0.35t-6,.15A89.9,89.9,0,0,1,844.2,269.632Zm17.1,37.7a19.464,19.464,0,0,0,6-3.45,15.187,15.187,0,0,0,3.85-4.95,13.2,13.2,0,0,0,1.35-5.8H870a10.715,10.715,0,0,1-1.15,4.749,14.586,14.586,0,0,1-3.1,4.2,14.907,14.907,0,0,1-4.6,2.95,14.579,14.579,0,0,1-5.65,1.1,11,11,0,0,1-4.8-1.051,9.439,9.439,0,0,1-3.8-3.5,19.776,19.776,0,0,1-2.5-6.6,49.907,49.907,0,0,1-.9-10.349q6,0,11.5-.451t9.7-1.05q4.9-.6,9.3-1.5c0.133-.465.3-1.033,0.5-1.7a18.556,18.556,0,0,0,.35-1.85,17.531,17.531,0,0,0,.15-2.449,18.6,18.6,0,0,0-1.65-7.75,18.4,18.4,0,0,0-4.75-6.351,23.433,23.433,0,0,0-7.55-4.3,29.591,29.591,0,0,0-10.05-1.6,26.812,26.812,0,0,0-9.95,1.8,20.89,20.89,0,0,0-7.75,5.25,24.578,24.578,0,0,0-5,8.35,32.047,32.047,0,0,0-1.8,11.1q0,12.4,7.1,19.45t19.9,7.05A22.282,22.282,0,0,0,861.3,307.332Zm59.7-9.2q0,9,9,9h13v-1.5l-6-1.5v-32a13.786,13.786,0,0,0-1.45-6.15,17.368,17.368,0,0,0-4-5.25,19.827,19.827,0,0,0-6.15-3.7,21.628,21.628,0,0,0-7.9-1.4,14.765,14.765,0,0,0-6.75,1.4,17.445,17.445,0,0,0-4.45,3.1,18.237,18.237,0,0,0-3.3,4.5,11.135,11.135,0,0,0-2.2-3.7,13.428,13.428,0,0,0-3.55-2.6,12.162,12.162,0,0,0-5.75-1.2h-9v1.5l6,1.5v44l-6,1.5v1.5h28v-1.5l-6-1.5v-37a19.27,19.27,0,0,1,2.2-4,12.961,12.961,0,0,1,2.8-2.75,6.568,6.568,0,0,1,4-1.25,5.447,5.447,0,0,1,2.65.75,7,7,0,0,1,2.4,2.35,14.805,14.805,0,0,1,1.75,4.05,21.514,21.514,0,0,1,.7,5.85v26Zm59-40.351a14.692,14.692,0,0,1,1.6.351c0.533,0.2,1,.366,1.4.5v15a5.12,5.12,0,0,0,1.2.3,9.725,9.725,0,0,0,1.249.15q0.75,0.051,1.55.05a7.051,7.051,0,0,0,7.5-7.5,8.438,8.438,0,0,0-1.05-4.051,10.211,10.211,0,0,0-3.3-3.5,18.855,18.855,0,0,0-5.75-2.5,32.421,32.421,0,0,0-8.4-.949q-12.8,0-19.9,7.049t-7.1,19.45q0,12.4,7.1,19.45t19.9,7.05a22.282,22.282,0,0,0,7.8-1.3,19.464,19.464,0,0,0,6-3.45,15.187,15.187,0,0,0,3.85-4.95,13.2,13.2,0,0,0,1.35-5.8h-2.5a10.715,10.715,0,0,1-1.15,4.749,14.586,14.586,0,0,1-3.1,4.2,14.907,14.907,0,0,1-4.6,2.95,14.579,14.579,0,0,1-5.65,1.1,10.57,10.57,0,0,1-4.8-1.1,9.43,9.43,0,0,1-3.8-3.8,23.252,23.252,0,0,1-2.5-7.35,63.5,63.5,0,0,1-.9-11.75,66.586,66.586,0,0,1,.9-12.05,24.019,24.019,0,0,1,2.5-7.5,9.38,9.38,0,0,1,3.8-3.85,10.6,10.6,0,0,1,4.8-1.1A12.22,12.22,0,0,1,980,257.782Zm39.7,11.85a34.3,34.3,0,0,1,1.75-7.45,7.859,7.859,0,0,1,2.4-3.6,4.6,4.6,0,0,1,2.65-.95,5.2,5.2,0,0,1,2.65.8,6.926,6.926,0,0,1,2.4,2.7,19.384,19.384,0,0,1,1.75,4.95,34.836,34.836,0,0,1,.7,7.55,25.832,25.832,0,0,1-.15,2.85c-0.1.9-.22,1.718-0.35,2.45-0.2.8-.37,1.534-0.5,2.2a35.775,35.775,0,0,1-3.6.5c-1.2.135-2.67,0.25-4.4,0.35s-3.74.15-6,.15A89.439,89.439,0,0,1,1019.7,269.632Zm17.1,37.7a19.534,19.534,0,0,0,6-3.45,15.268,15.268,0,0,0,3.85-4.95,13.2,13.2,0,0,0,1.35-5.8h-2.5a10.8,10.8,0,0,1-1.15,4.749,14.642,14.642,0,0,1-3.1,4.2,14.978,14.978,0,0,1-4.6,2.95,14.59,14.59,0,0,1-5.65,1.1,10.958,10.958,0,0,1-4.8-1.051,9.382,9.382,0,0,1-3.8-3.5,19.711,19.711,0,0,1-2.5-6.6,49.907,49.907,0,0,1-.9-10.349q6,0,11.5-.451c3.66-.3,6.9-0.649,9.7-1.05q4.89-.6,9.3-1.5c0.13-.465.3-1.033,0.5-1.7,0.13-.533.25-1.15,0.35-1.85a17.531,17.531,0,0,0,.15-2.449,18.477,18.477,0,0,0-6.4-14.1,23.53,23.53,0,0,0-7.55-4.3,29.616,29.616,0,0,0-10.05-1.6,26.8,26.8,0,0,0-9.95,1.8,20.818,20.818,0,0,0-7.75,5.25,24.483,24.483,0,0,0-5,8.35,32.047,32.047,0,0,0-1.8,11.1q0,12.4,7.1,19.45t19.9,7.05A22.33,22.33,0,0,0,1036.8,307.332Zm34.45-11.95a7.25,7.25,0,1,0,2.25,5.25A7.194,7.194,0,0,0,1071.25,295.382Z" transform="translate(-662.5 -255.625)"/>
</svg>
